<svg width="269.000000" height="93.000000" viewBox="0 0 269 93" fill="none" xmlns="http://www.w3.org/2000/svg" xmlns:xlink="http://www.w3.org/1999/xlink">
	<desc>
			Created with Pixso.
	</desc>
	<defs/>
	<path id="Форма 1" d="M265 2C266.1 2 267 2.89 267 4L267 89C267 90.1 266.1 91 265 91L4 91C2.89 91 2 90.1 2 89L2 4C2 2.89 2.89 2 4 2L265 2Z" stroke="#3D3D3F" stroke-opacity="1.000000" stroke-width="4.000000"/>
	<path id="WANDERLUST" d="M221.28 39.27Q220.03 39.17 218.86 39.15Q217.47 39.15 216.46 39.3Q215.45 39.44 214.79 39.88Q214.74 39.91 214.69 39.95Q214.11 40.39 213.8 41.2Q213.48 42.07 213.48 43.51Q213.48 45.41 214.21 46.54Q214.95 47.67 216.75 48.13L220.18 48.99Q220.9 49.16 221.37 49.43Q221.55 49.54 221.7 49.69Q221.92 49.92 222.05 50.24Q222.27 50.76 222.27 51.72Q222.27 52.85 221.97 53.43Q221.89 53.58 221.78 53.71Q221.47 54.05 220.93 54.2Q220.2 54.39 218.93 54.39L217.63 54.39Q217.01 54.39 216.14 54.35Q215.28 54.31 213.87 54.27L213.72 55.83Q215.43 56.14 216.73 56.21Q218.05 56.28 218.86 56.28Q220.3 56.28 221.36 56.1Q222.41 55.92 223.08 55.46Q223.17 55.39 223.26 55.32Q223.8 54.86 224.08 54.1Q224.4 53.21 224.4 51.77Q224.4 49.85 223.69 48.71Q222.99 47.57 221.07 47.11L217.71 46.27Q216.6 46.01 216.11 45.47Q215.62 44.93 215.62 43.56Q215.62 42.65 215.8 42.14Q215.94 41.73 216.23 41.5Q216.3 41.44 216.39 41.39Q216.8 41.16 217.43 41.11Q218.07 41.04 218.95 41.04Q220.11 41.04 221.36 41.08Q222.6 41.11 223.64 41.16L223.78 39.63Q222.53 39.36 221.28 39.27ZM106.07 39.65Q104.84 39.22 103.06 39.22Q101.35 39.22 99.9 39.28Q98.45 39.34 97.15 39.44L97.15 56Q98.45 56.09 99.9 56.15Q101.35 56.21 103.06 56.21Q104.84 56.21 106.07 55.78Q106.91 55.48 107.53 54.94Q107.82 54.68 108.06 54.37Q108.82 53.38 109.17 51.75Q109.52 50.11 109.52 47.72Q109.52 45.31 109.17 43.68Q108.82 42.05 108.06 41.07Q107.81 40.73 107.49 40.46Q106.89 39.93 106.07 39.65ZM99.27 54.3Q99.77 54.31 100.31 54.33Q101.55 54.36 103.06 54.36Q104.64 54.36 105.58 53.75Q106.52 53.14 106.91 51.69Q107.31 50.24 107.31 47.72Q107.31 45.2 106.91 43.74Q106.52 42.29 105.58 41.67Q104.64 41.04 103.06 41.04Q101.57 41.04 100.38 41.07Q99.82 41.08 99.27 41.09L99.27 54.3ZM153.34 39.64Q152.16 39.22 150.24 39.22Q148.92 39.22 147.97 39.23Q147.03 39.24 146.23 39.29Q145.44 39.34 144.53 39.44L144.53 56L146.62 56L146.62 49.05Q147.12 49.06 147.72 49.07Q148.8 49.08 150.27 49.08Q151.11 49.08 151.64 49.48Q152.16 49.88 152.47 50.81L153.94 56L156.2 56L154.59 50.76Q154.42 50.07 154.08 49.57Q153.75 49.08 153.35 48.78Q152.96 48.48 152.55 48.39L152.55 48.27Q153.65 48.13 154.31 47.63Q154.38 47.58 154.45 47.52Q155 47.05 155.28 46.24Q155.6 45.34 155.6 44Q155.6 42.13 155.05 41.09Q154.85 40.7 154.55 40.4Q154.07 39.9 153.34 39.64ZM146.62 47.26L150.2 47.26Q151.42 47.24 152.13 46.97Q152.49 46.84 152.75 46.59Q153 46.36 153.15 46.02Q153.46 45.34 153.46 44.11Q153.46 42.89 153.15 42.23Q153.01 41.94 152.8 41.72Q152.53 41.45 152.13 41.31Q151.42 41.04 150.2 41.04Q148.23 41.04 146.8 41.07Q146.71 41.07 146.62 41.07L146.62 47.26ZM127.55 39.41L125.14 39.41Q123.78 39.41 122.95 40.08Q122.88 40.13 122.82 40.18Q122.6 40.38 122.44 40.61Q121.97 41.29 121.95 42.29L121.95 53.14Q121.97 54.08 122.4 54.74Q122.58 55.01 122.82 55.24Q122.9 55.31 122.98 55.37Q123.81 56.02 125.14 56.02Q126.34 56.02 127.55 56.01Q128.76 56 129.95 55.97Q131.14 55.95 132.24 55.88L132.15 54.24L125.5 54.24Q124.77 54.24 124.42 53.88Q124.41 53.87 124.4 53.86Q124.06 53.48 124.06 52.64L124.06 48.1L131.21 48.1L131.21 46.4L124.06 46.4L124.06 42.79Q124.06 41.96 124.4 41.59Q124.41 41.58 124.41 41.58Q124.76 41.21 125.5 41.21L132.15 41.21L132.24 39.55Q131.14 39.48 129.95 39.45Q128.76 39.41 127.55 39.41ZM32.65 55.37L36 39.44L33.77 39.44L31.16 52.37Q31.06 52.85 30.99 53.37Q30.92 53.89 30.84 54.39L30.24 54.39Q30.2 53.89 30.11 53.38Q30.03 52.88 29.91 52.34L27.34 40.13Q27.28 39.88 27.13 39.71Q27.09 39.67 27.05 39.63Q26.97 39.56 26.88 39.51Q26.72 39.44 26.52 39.44L24.22 39.44Q24.04 39.44 23.89 39.5Q23.78 39.55 23.68 39.63Q23.6 39.7 23.54 39.78Q23.44 39.93 23.41 40.13L20.83 52.34Q20.74 52.83 20.64 53.33Q20.55 53.83 20.45 54.39L19.9 54.39Q19.8 53.83 19.73 53.32Q19.66 52.8 19.56 52.34L16.97 39.44L14.74 39.44L18.1 55.37Q18.12 55.47 18.16 55.55Q18.23 55.7 18.37 55.82Q18.44 55.87 18.51 55.9Q18.69 56 18.92 56L21.34 56Q21.57 56 21.76 55.9Q21.82 55.86 21.88 55.82Q21.97 55.74 22.04 55.65Q22.14 55.52 22.18 55.34L24.75 42.89Q24.84 42.44 24.92 41.96Q25.01 41.48 25.1 41.02L25.61 41.02Q25.71 41.48 25.8 41.94Q25.9 42.41 26 42.89L28.58 55.34Q28.62 55.51 28.7 55.64Q28.77 55.74 28.86 55.82Q28.92 55.87 29 55.9Q29.18 56 29.41 56L31.8 56Q32.12 56 32.32 55.85Q32.34 55.83 32.35 55.82Q32.48 55.71 32.56 55.58Q32.61 55.48 32.65 55.37ZM54.14 39.51Q53.98 39.44 53.79 39.44L51.58 39.44Q51.38 39.44 51.22 39.51Q51.14 39.54 51.07 39.59Q50.99 39.65 50.93 39.72Q50.83 39.85 50.79 40.01L45.46 56L47.64 56L49.28 50.81L56.08 50.81L57.72 56L59.91 56L54.58 40.01Q54.54 39.86 54.45 39.75Q54.38 39.66 54.29 39.59Q54.22 39.54 54.14 39.51ZM55.51 48.99L53.43 42.41Q53.33 42.07 53.22 41.73Q53.12 41.38 53.02 41.07L52.35 41.07Q52.25 41.38 52.15 41.73Q52.06 42.07 51.94 42.41L49.86 48.99L55.51 48.99ZM83.98 55.16L83.98 39.44L81.89 39.44L81.89 51.44Q81.89 52.06 81.91 52.68Q81.94 53.31 81.96 53.96L81.56 53.96Q81.29 53.33 80.99 52.7Q80.69 52.06 80.43 51.55L75 40.1Q74.86 39.77 74.64 39.61Q74.43 39.44 74.07 39.44L72.08 39.44Q71.65 39.44 71.44 39.65Q71.23 39.86 71.23 40.27L71.23 56L73.35 56L73.35 43.58Q73.35 43.03 73.32 42.48Q73.3 41.93 73.25 41.41L73.64 41.41Q73.78 41.91 74.07 42.51Q74.36 43.1 74.57 43.58L80.16 55.32Q80.31 55.66 80.52 55.83Q80.74 56 81.1 56L83.16 56Q83.56 56 83.76 55.8Q83.98 55.59 83.98 55.16ZM170.41 52.64L170.41 39.44L168.31 39.44L168.31 52.9Q168.31 53.93 168.76 54.69Q168.9 54.92 169.08 55.13Q169.85 56.02 171.68 56.02Q173.28 56.02 174.9 56Q176.52 55.97 178.08 55.85L177.99 54.22L172.01 54.22Q171.2 54.22 170.8 53.84Q170.41 53.45 170.41 52.64ZM201.2 49.66L201.2 39.44L199.09 39.44L199.09 49.66Q199.09 51.44 198.7 52.48Q198.41 53.27 197.85 53.72Q197.67 53.86 197.46 53.97Q196.61 54.41 195.17 54.41Q193.73 54.41 192.86 53.97Q192.64 53.85 192.45 53.7Q191.91 53.25 191.63 52.48Q191.26 51.44 191.26 49.66L191.26 39.44L189.15 39.44L189.15 49.66Q189.15 52.06 189.75 53.52Q190.12 54.42 190.77 55.02Q191.17 55.39 191.69 55.65Q193.03 56.31 195.27 56.31Q197.45 56.31 198.75 55.65Q199.19 55.42 199.55 55.1Q200.24 54.48 200.62 53.52Q201.2 52.06 201.2 49.66ZM247.99 41.31L247.99 39.44L235.2 39.44L235.2 41.31L240.53 41.31L240.53 56L242.64 56L242.64 41.31L247.99 41.31Z" fill="#050505" fill-opacity="1.000000" fill-rule="evenodd"/>
</svg>
